<?xml version="1.0" encoding="UTF-8"?>
<svg id="Layer_2" data-name="Layer 2" xmlns="http://www.w3.org/2000/svg" viewBox="0 0 100 100" width="100" height="100">
  <path fill = "#ff6e00" d="m46.95,86.29c-.16-.07-.32-.13-.48-.19-.4-.16-.77-.3-1.09-.51-1.07-.69-1.65-1.73-1.77-3.18l-.03-.34-.34-.04c-2.33-.28-3.66-1.53-3.94-3.72l-.03-.23-.21-.1c-.32-.15-.63-.29-.94-.42-.62-.27-1.21-.53-1.71-.87-.74-.5-1.2-1.34-1.38-2.47-.05-.34-.38-.79-.76-.87-2.79-.63-4-2.48-3.39-5.23.01-.05.02-.11.03-.18l.05-.4-1.52-.74-.21.28c-.08.09-.14.16-.17.26-.42,1.2-.61,1.33-.95,1.33-.3,0-.76-.13-1.2-.27-3.38-1.07-6.76-2.15-10.13-3.22-.83-.26-.97-.46-.97-1.31,0-7.92,0-15.83,0-23.75,0-.46.11-1.23.83-1.23.24,0,.54.09.85.25l14.97,7.78c1.23.64,1.23.66.97,1.99-.02.08-.03.16-.04.27l-.1.8,1.78-.44c.82-.21,1.63-.41,2.44-.59.45-.1.89-.2,1.33-.31,1.35-.31,2.74-.64,4.12-.81.33-.04.66-.06,1-.06,1.51,0,3.06.43,4.62,1.28.21.12.4.17.59.17.31,0,.54-.15.71-.28,1.28-1,2.65-1.49,4.18-1.49.67,0,1.37.09,2.1.28,2.38.61,4.71,1.17,7.19,1.76,1.03.25,2.08.5,3.13.75l.66.16-.41-1.88c-.16-.73-.02-1.04.62-1.37,5.17-2.69,10.34-5.38,15.51-8.06.3-.15.53-.23.71-.23.2,0,.45.08.87.65v24.93c-.06.06-.13.13-.19.2-.17.19-.35.38-.5.43-3.94,1.29-7.88,2.53-11.21,3.57-.11.03-.21.05-.32.05-.39,0-.7-.26-.86-.72-.06-.16-.11-.33-.16-.5l-.23-.72-1.06.52c-.45.22-.88.44-1.31.63-.61.27-.74.73-.78,1.1-.17,1.48-.91,2.54-2.21,3.17-.35.17-.74.27-1.15.38-.2.05-.4.11-.61.17l-.26.08-.03.27c-.29,2.31-1.58,3.58-3.96,3.88l-.34.04-.03.34c-.12,1.37-.67,2.4-1.69,3.13-.68.49-1.45.74-2.31.74-.35,0-.72-.04-1.09-.12l-.29-.06-.16.24c-1.43,2.16-2.93,4.17-5.42,5.04h-1.33Zm2.69-8.16c-.48,0-.93.17-1.29.49-.78.7-1.56,1.48-2.38,2.38-.57.62-.66,1.45-.25,2.25.38.74,1.04,1.13,2.02,1.19h.09s.09-.03.09-.03c.04-.02.1-.03.16-.05.22-.06.53-.15.77-.37.95-.88,1.74-1.64,2.47-2.47.67-.76.59-1.96-.19-2.74-.41-.41-.96-.64-1.51-.64Zm-4.33-4.31c-.49,0-.96.19-1.36.56-.62.57-1.29,1.23-2.09,2.07-.88.92-.91,2.16-.08,3.01.4.42.93.65,1.49.65h0c.57,0,1.13-.24,1.59-.67.61-.58,1.31-1.24,1.93-1.95.24-.28.4-.59.55-.9.06-.12.12-.25.18-.36l.07-.13-.03-.15c-.16-.92-.59-1.54-1.31-1.89-.31-.15-.63-.23-.94-.23Zm-8.68-10.49c.43,0,.87.07,1.32.22,1.53.5,2.43,1.57,2.68,3.19.09.6.39.89.98.98,1.77.25,3.11,1.58,3.33,3.32.08.61.38.91.99.98.87.1,1.63.5,2.35,1.22.9.91,1.81,1.81,2.71,2.71l.9.9c.64.64,1.28,1.28,1.93,1.9.39.37.9.57,1.43.57.36,0,.71-.09,1.02-.26.85-.47,1.27-1.4,1.03-2.26-.13-.45-.42-.93-.79-1.31-1.62-1.65-3.26-3.29-4.9-4.92l-1.9-1.9c-.12-.12-.24-.23-.34-.36-.29-.38-.26-.91.06-1.23.18-.18.4-.27.64-.27.21,0,.41.07.59.21.12.1.23.21.34.32l6.76,6.76c.14.14.29.29.45.42.4.32.88.49,1.37.49.55,0,1.08-.22,1.47-.62.77-.77.83-1.97.12-2.85-.13-.16-.28-.31-.42-.45l-6.69-6.69c-.13-.13-.26-.26-.37-.4-.3-.39-.28-.9.05-1.23.17-.17.4-.27.65-.27.21,0,.41.07.59.2.12.09.23.21.34.32l2.5,2.5c1.47,1.47,2.94,2.95,4.42,4.41.51.51,1.09.77,1.69.77.53,0,1.03-.22,1.44-.62.89-.89.85-2.11-.11-3.13l-2.91-3.06c-1.82-1.91-3.64-3.82-5.45-5.74-.18-.19-.46-.44-.88-.44-.17,0-.35.04-.57.13l-.23.09c-2,.8-4.08,1.62-6.14,2.36-.72.26-1.38.39-1.95.39-.06,0-.12,0-.19,0-1.88-.1-3.44-1.32-3.96-3.11-.53-1.82.13-3.68,1.73-4.87.54-.4,1.07-.8,1.64-1.21l1.25-.92-.68-.3c-1.09-.47-2.19-.71-3.26-.71-.52,0-1.05.06-1.57.17-2.47.54-4.96,1.17-7.37,1.78l-1.39.35c-.33.08-.68.45-.77.79-.93,3.81-1.84,7.65-2.71,11.4-.08.34.14.84.46,1.02.8.47,1.25.73,1.71.73.58,0,.97-.38,1.74-1.14l.15-.15c.83-.8,1.75-1.2,2.75-1.2Zm4.38,6.18c-.47,0-.92.17-1.26.47-.82.74-1.64,1.55-2.42,2.42-.55.61-.63,1.44-.2,2.26.38.75,1.06,1.11,2.06,1.12h.08s.07-.03.07-.03c.02,0,.06-.01.09-.02.2-.05.53-.13.78-.36.79-.73,1.71-1.59,2.51-2.52.66-.75.55-1.98-.24-2.74-.4-.38-.94-.6-1.48-.6Zm-4.3-4.31c-.5,0-.99.19-1.37.53-.75.68-1.5,1.43-2.23,2.23-.24.27-.37.61-.45.83-.02.06-.04.11-.06.15l-.04.09v.1c.01,1.06.39,1.74,1.19,2.12.32.15.65.23.96.23.49,0,.95-.19,1.34-.55.82-.76,1.55-1.49,2.23-2.22.76-.83.75-2.03-.03-2.85-.41-.43-.97-.67-1.54-.67Zm31.95-16.67l4.29,18.01,9.61-3.05v-22.17l-13.89,7.21Zm-50.97,14.96l9.61,3.05,4.28-18.01-13.9-7.22v22.18Zm38.9-7.98c.22,0,.41.09.86.57l9.84,10.36.97-.48c.51-.26,1.01-.5,1.52-.73.75-.33.72-.88.61-1.33-.86-3.53-1.69-7.07-2.52-10.6-.1-.44-.31-.92-1.07-1.1-3.64-.86-7.26-1.75-10.89-2.64l-.55-.14c-.5-.12-.97-.18-1.41-.18-.83,0-1.58.22-2.2.65-2.19,1.51-4.3,3.09-6.25,4.57-.77.58-1.04,1.51-.75,2.55.28,1.02,1,1.66,1.96,1.77.12.01.24.02.37.02.44,0,.92-.09,1.34-.24,1.77-.66,3.53-1.34,5.29-2.02l2.11-.82c.37-.14.6-.2.78-.2Z"/>
  <path fill = "#ff6e00" d="m41.69,41.36c-.82,0-1.64,0-2.46-.02-.71-.01-.9-.51-.94-.94-.01-.12-.07-1.07-.07-1.07h-11.59c-1.27,0-1.44-.17-1.49-1.52-.09-2.71.6-4.93,2.12-6.79,1.15-1.4,2.59-2.39,4.42-3.01l.54-.19-.34-.47c-1.11-1.53-1.07-3.26-.9-5.2.21-2.52,2.42-4.5,5.03-4.5h.15c2.6.08,4.78,2.26,4.86,4.86.08,2.75.05,2.93-.86,4.78l-.17.35.94.55c.79.47,1.57.93,2.36,1.38.1.06.22.09.36.09.18,0,.35-.05.44-.09.35-.14.7-.28,1.07-.44l.87-.37-.24-.42c-.03-.06-.07-.12-.11-.18-.06-.09-.12-.18-.14-.25-.09-.26-.18-.53-.28-.79-.24-.64-.47-1.25-.53-1.87-.12-1.26-.08-2.42.14-3.44.5-2.42,2.72-4.18,5.27-4.18.15,0,.3,0,.45.02,2.69.22,4.83,2.42,4.98,5.12.03.62.03,1.25.02,1.86v.49c-.01,1.07-.38,2.11-1.12,3.18l-.3.43.92.38c.39.16.75.32,1.13.45.1.04.22.06.34.06.18,0,.36-.04.49-.12.73-.41,1.45-.83,2.19-1.27l1.1-.65-.26-.38c-1.2-1.76-1.03-3.86-.7-5.69.4-2.22,2.51-3.9,4.9-3.9.11,0,.22,0,.33.01,2.46.16,4.45,2.1,4.65,4.52.15,1.93.19,3.65-.91,5.16l-.34.46.54.19c2.15.75,3.79,2.01,5.01,3.83,1.22,1.83,1.69,3.97,1.49,6.74-.05.63-.65.76-1.15.76h-11.88s-.09,1.04-.09,1.04c-.05.64-.37.96-.97.97-.78.01-1.56.02-2.33.02s-1.56,0-2.34-.02c-.31,0-.58-.11-.77-.31-.17-.17-.25-.4-.24-.65.02-.53.42-.88,1.02-.89.42,0,.84,0,1.26,0h2.33s.05-.36.05-.36c.28-1.85-.45-4.06-1.92-5.77-1.6-1.86-3.8-2.89-6.2-2.89-.13,0-.27,0-.4,0l-.41.02v1.32c0,1.79-.49,1.8-.92,1.8h0c-.44,0-.59-.15-.69-.32-.17-.28-.25-.78-.25-1.52v-1.25l-.39-.03c-.2-.02-.39-.02-.59-.02-2.18,0-4.33.99-5.89,2.73-1.54,1.7-2.29,3.85-2.08,5.89l.04.38h2.37c.43,0,.87,0,1.3,0,.5,0,.84.25.96.69.07.27.02.55-.15.78-.17.23-.44.37-.74.37-.78.02-1.56.03-2.34.03Zm-7.6-11.9c-1.86,0-3.82.98-5.25,2.62-1.33,1.52-1.96,3.34-1.74,4.99l.05.37h11.22l.06-.35c.4-2.22,1.44-4.16,3.1-5.76l.36-.34-.39-.3c-.99-.76-2.46-1.23-3.84-1.23-.1,0-.19,0-.29,0l-.37.02-.04.37c-.02.22-.02.45-.03.68-.01,1.06-.09,1.44-.91,1.46h0c-.88,0-.95-.36-.96-1.4,0-.25,0-.49-.03-.71l-.04-.34-.34-.04c-.19-.02-.37-.03-.56-.03Zm28.8-.04c-1.63.03-2.93.41-4.1,1.19l-.39.26.29.36q2.27,2.84,3.19,5.89l.09.3h11.17l.03-.39c.14-1.8-.56-3.69-1.93-5.18-1.4-1.51-3.29-2.38-5.19-2.38-.15,0-.31,0-.46.02l-.39.03v.72c0,.24,0,.48,0,.72-.02.66-.35,1.04-.92,1.04s-.91-.39-.94-1.04c0-.25,0-.5,0-.75v-.81s-.43,0-.43,0Zm-12.78-9.91c-1.86,0-3.43,1.44-3.55,3.27-.06.81-.06,1.65,0,2.5.12,1.74,1.48,3.11,3.24,3.26.11,0,.22.01.32.01,1.68,0,3.12-1.11,3.49-2.69.1-.41.11-.83.13-1.23,0-.17.01-.34.03-.52l.04-.43h-.09c0-.32.01-.63-.01-.94-.16-1.82-1.73-3.24-3.57-3.24h-.01Zm10.97,4.39c0,.19,0,.38,0,.58.06,1.66,1.33,2.98,2.96,3.07.06,0,.13,0,.19,0,1.63,0,2.98-1.18,3.15-2.75.09-.81.09-1.66,0-2.52-.15-1.53-1.44-2.72-3-2.78h-.12c-1.52,0-2.83,1.05-3.12,2.51-.07.35-.08.7-.08,1.04,0,.14,0,.29-.01.43l-.02.41h.04Zm-25.1-4.39c-1.61,0-2.96,1.16-3.13,2.71-.1.85-.1,1.72,0,2.59.16,1.57,1.52,2.75,3.15,2.75.06,0,.12,0,.18,0,1.63-.09,2.91-1.4,2.97-3.06,0-.22,0-.45,0-.67v-.62c0-.24,0-.47,0-.71-.09-1.58-1.4-2.89-2.99-2.97-.06,0-.12,0-.18,0Z"/>
  <path fill = "#ff6e00" d="m50.13,39.07c.73,0,1.33.59,1.34,1.32.01.75-.62,1.39-1.36,1.38-.74,0-1.37-.66-1.34-1.4.02-.73.63-1.3,1.36-1.3Z"/>
  <path fill = "#ff6e00" d="m50.11,41.34c-.24,0-.48-.11-.65-.29-.18-.19-.27-.43-.27-.67.02-.5.42-.89.93-.89.51,0,.92.41.93.9,0,.24-.1.48-.28.66-.18.18-.41.28-.65.28h0Z"/>
</svg>