<?xml version="1.0" encoding="UTF-8"?>
<svg id="Layer_2" data-name="Layer 2" xmlns="http://www.w3.org/2000/svg" viewBox="0 0 100 100" width="100" height="100">
  <path fill = "#ff6e00" d="m24.96,78.53c-.06-.04-.11-.07-.18-.09-3.47-.73-5.46-3.18-5.46-6.72V31.68c0-1.14.27-1.42,1.4-1.42h3.91l.07-.21.06-.22v-5.94c.01-1.31.24-1.54,1.54-1.54h3.92v-5.27c0-1.14.28-1.42,1.41-1.42h15.71c11.14,0,22.28,0,33.43-.01.72,0,1.14.2,1.43.69v56.63l-.03.04c-.03.1-.07.2-.09.3-.56,2.45-2.04,4.11-4.42,4.93-.24.08-.49.14-.73.21l-.33.09H24.96Zm6.23-24.13c.48,0,.9.36.97.85.02.12.02.24.02.36,0,5.5,0,10.91,0,16.31,0,.34-.03.68-.06,1.02-.12,1.07-.55,2.09-1.36,3.22l-.28.4h44.94c2.96,0,4.79-1.85,4.79-4.82V17.66s-48.03,0-48.03,0v26.2c0,.16,0,.32-.01.48-.06.5-.48.88-.97.88s-.91-.38-.98-.87c-.02-.14-.02-.29-.01-.44v-19.56s-3.47,0-3.47,0v46.09c0,.18,0,.35-.01.53-.06.5-.48.87-.97.87-.49,0-.91-.38-.97-.88-.02-.16-.02-.32-.01-.48v-38.23s-3.47,0-3.47,0v39.49c0,.25,0,.41,0,.57.1,2.3,2.06,4.2,4.36,4.24h0c2.58,0,4.54-1.98,4.55-4.5.01-3.73,0-7.47,0-11.2v-5.12c0-.16,0-.32.01-.48.07-.48.46-.84.94-.85h.03Z"/>
  <path fill = "#ff6e00" d="m37.64,34.7c-1.22,0-1.49-.26-1.49-1.46v-8.1c0-1,.32-1.33,1.31-1.33h37.48c1,0,1.3.31,1.3,1.33,0,2.74,0,5.48,0,8.23,0,1-.32,1.33-1.31,1.33h-9.4s-27.89,0-27.89,0Zm.51-2.02h36.07v-6.86h-36.07v6.86Z"/>
  <path fill = "#ff6e00" d="m37.48,64.41c-1.02,0-1.33-.31-1.33-1.31v-23.14c0-.97.32-1.3,1.27-1.3h18.49c.95,0,1.27.33,1.27,1.3v23.07c0,1.06-.3,1.36-1.33,1.37h-9.18s-9.18,0-9.18,0Zm.69-2.01h17v-21.72h-17v21.72Z"/>
  <path fill = "#ff6e00" d="m37.34,70.36c-.07,0-.15,0-.22,0-.57-.04-.97-.46-.96-1,0-.51.41-.92.94-.96.09,0,.18,0,.27,0h37.69c.11,0,.22,0,.32.02.5.07.86.49.86.99,0,.48-.36.88-.84.95-.1.02-.21.02-.31.02h-37.75Z"/>
  <path fill = "#ff6e00" d="m62.24,40.64c-.62,0-1.06-.38-1.08-.94-.02-.49.33-.93.83-1.02.09-.01.18-.02.26-.02h12.79c.41,0,.74.11.95.33.17.17.25.39.25.66,0,.61-.46.98-1.21.98h-9.96c-.94,0-1.88,0-2.83,0Z"/>
  <path fill = "#ff6e00" d="m65.02,46.59c-.92,0-1.83,0-2.75,0-.65,0-1.1-.39-1.11-.97,0-.27.08-.5.26-.69.19-.2.48-.31.81-.31.66,0,1.32,0,1.98,0h10.86c.71,0,1.16.38,1.17.97,0,.27-.08.5-.26.68-.2.21-.51.32-.87.32-.92,0-1.83,0-2.75,0h-7.34Z"/>
  <path fill = "#ff6e00" d="m62.29,52.53c-.36,0-.67-.11-.88-.32-.17-.17-.26-.41-.26-.68,0-.59.45-.96,1.16-.98h12.72c.4,0,.74.12.95.33.17.17.25.4.25.66,0,.59-.46.98-1.16.98h-6.39s-6.39,0-6.39,0Z"/>
  <path fill = "#ff6e00" d="m62.41,58.47c-.45,0-.8-.12-1.01-.34-.17-.17-.25-.39-.24-.66,0-.85.81-.98,1.29-.98h12.54c.45,0,.8.12,1.01.34.17.17.25.39.25.66-.01.88-.9.98-1.29.98h-9.87s-2.67,0-2.67,0Z"/>
  <path fill = "#ff6e00" d="m62.39,64.41c-.77,0-1.22-.35-1.24-.96,0-.27.07-.5.24-.67.22-.22.56-.34,1-.34h12.6c.76,0,1.22.36,1.24.96,0,.27-.08.5-.24.67-.21.22-.57.34-1,.34h-2.52s-10.08,0-10.08,0Z"/>
  <path fill = "#ff6e00" d="m31.21,50.79c-.54-.03-.94-.47-.92-1.02.02-.53.44-.95.97-.95.56.01.98.45.97.99,0,.54-.44.98-.97.98h-.05Z"/>
</svg>