<?xml version="1.0" encoding="UTF-8"?>
<svg id="Layer_2" data-name="Layer 2" xmlns="http://www.w3.org/2000/svg" viewBox="0 0 100 100" width="100" height="100">
  <path d="m84.32,79.98h0c0,.54-.43.92-.97.92-21.46,0-66.2,0-66.42,0-.67,0-1.04-.48-1.01-1.01.03-.5.45-.91,1.01-.91,1.48,0,1.77-.41,2.24-1.39.96-1.98,2.06-3.88,3.05-5.84.89-1.77,2.23-3.3,3.96-4.26.74-.41,1.2-1,1.58-1.76,3.63-7.35,7.29-14.68,10.93-22.02.45-.9,1.05-1.58,2.13-1.48.46.04.93.27,1.32.52.54.34,1.01.77,1.57,1.21.33-.75.63-1.43.92-2.12.8-1.87,1.61-3.74,2.4-5.62.33-.78.82-1.39,1.56-1.84.21-.12.35-.53.35-.8.02-4.95.01-9.89.02-14.84,0-.27,0-.53.04-.8.06-.51.39-.88.86-.84.35.03.82.3.97.6.18.36.36.42.69.42,2.55,0,5.1,0,7.65,0,.51,0,.99.04,1.26.55.27.51.02.94-.26,1.35-.44.64-.85,1.3-1.3,1.93-.2.28-.19.49,0,.76.49.69.99,1.37,1.39,2.11.18.33.28.86.13,1.15-.15.28-.67.52-1.02.53-2.53.04-5.06.02-7.59.02-.24,0-.48,0-.76,0-.03.22-.06.39-.06.56,0,2.2-.01,4.39.01,6.59,0,.23.16.58.35.67.85.42,1.34,1.11,1.72,1.94,2.86,6.26,5.74,12.52,8.61,18.78.1.22.21.44.26.56.74-.16,1.44-.42,2.14-.42,1.21,0,2.03.72,2.68,1.7,4.51,6.79,9.04,13.58,13.57,20.36.09.13.19.25.26.39.46,1,1.14,1.34,2.33,1.34.04,0,.23,0,.46.01.53.01.95.45.95.97Zm-47.9-1.73c-.26.23-.1.65.25.65h42.32c-.17-.27-.3-.48-.43-.68-1.59-2.38-3.17-4.76-4.76-7.14-2.93-4.39-5.85-8.78-8.78-13.16-.69-1.04-1.58-1.02-2.23.02-.31.49-.59.99-.91,1.47-.4.62-.95.78-1.46.46-.51-.31-.64-.91-.21-1.5.41-.57.36-1.04.05-1.62-.49-.94-.9-1.93-1.34-2.89-.08-.17-.18-.33-.28-.53-.08.08-.16.15-.23.22-1.37,1.27-3.42,1.19-4.88.02-.8-.65-1.45-.44-1.91.62-.58,1.34-1.11,2.71-1.76,4.01-.51,1.02-1.46,1.45-2.58,1.46-1.14.02-1.97-.56-2.62-1.46-.99-1.38-1.99-2.75-3.04-4.2-.13.28-.23.48-.31.68-.66,1.54-1.35,3.07-1.98,4.62-.84,2.03-2.26,3.77-4.14,4.92-2.83,1.73-5.65,3.47-8.43,5.28-.76.49-1.55,1.13-1.99,1.89-1.4,2.39-2.64,4.87-3.94,7.31-.03.05-.02.12-.03.22.12.01.22.03.33.03,3.61,0,7.23,0,10.84-.01.36,0,.71-.13.98-.36,1.67-1.4,3.32-2.83,4.97-4.25,1.25-1.07,2.69-1.9,4.24-2.46,3.26-1.18,6.52-2.37,9.8-3.52,1.77-.62,3.27-1.84,4.22-3.46.49-.84,1.01-1.66,1.53-2.49.41-.65.99-.84,1.5-.52.53.33.61.88.19,1.57-.61,1.01-1.22,2.01-1.85,3-1.14,1.81-2.76,3.02-4.78,3.73-2.84,1-5.64,2.14-8.51,3.01-3.11.94-5.45,2.95-7.84,5.06Zm4.65-33.82c-.19-.15-.46-.08-.56.13l-9.98,20.07c.64-.26,1.18-.6,1.72-.93,4.25-2.61,4.1-2.46,6.03-7.02.85-2.02,1.74-4.03,2.59-6.04.24-.57.59-.95,1.26-.81.61.13.93.77.62,1.42-.23.48-.12.8.17,1.19,1.11,1.49,2.19,3.01,3.28,4.52.3.41.6.77,1.18.72.61-.06.83-.5,1.03-.99.45-1.11.91-2.21,1.39-3.3.17-.38.36-.77.63-1.09,1.14-1.35,3.12-1.42,4.43-.19.89.84,1.3.84,2.18-.03.09-.09.18-.2.28-.28.39-.28.4-.58.2-1.02-1.36-2.91-2.69-5.83-4.03-8.75-.78-1.69-1.54-3.39-2.33-5.07-.39-.85-1.16-1.15-1.75-.66-.27.22-.46.59-.61.92-1.4,3.23-2.78,6.47-4.17,9.7-.1.22-.19.45-.33.65-.3.42-.73.52-1.18.32-.47-.21-.69-.62-.55-1.15.08-.29.2-.57.3-.87l-1.81-1.42Zm15.91-24.26h-5.61c-.21,0-.37.17-.37.37v3.57c0,.21.17.37.37.37h5.61c.3,0,.47-.33.31-.58-.15-.23-.3-.46-.45-.67-.37-.55-.37-1.26,0-1.81.15-.22.29-.44.45-.68s-.01-.58-.31-.58Z"/>
</svg>