<?xml version="1.0" encoding="UTF-8"?>
<svg id="Layer_2" data-name="Layer 2" xmlns="http://www.w3.org/2000/svg" viewBox="0 0 100 100" width="100" height="100">
  <path d="m80.84,75.54c-.38,1.17-1.01,2.12-2.28,2.45-.4.11-.84.14-1.25.15-16.93,0-33.86.01-50.78,0-3.81,0-6.72-2.26-7.56-5.81-.1-.43-.17-.88-.17-1.32,0-13.78-.04-27.55,0-41.33.01-3.83,3.22-6.97,7.03-7.14,1.02-.04,1.39.31,1.4,1.34,0,3.58,0,7.15,0,10.73,0,.24,0,.47,0,.78.67,0,1.27,0,1.87,0,1.07,0,2.14,0,3.21,0,.86,0,1.32.35,1.33.98.01.63-.46,1-1.31,1.01-1.45,0-2.91,0-4.36,0-.22,0-.44,0-.74,0v.82c0,8.48,0,16.97,0,25.45,0,1.31-.2,1.58-1.5,1.68-2.48.19-4.45,2.11-4.85,4.45-.43,2.45.81,4.83,3.12,5.84.75.33,1.64.5,2.46.5,16.97.03,33.94.02,50.9.02,1.03,0,1.45-.4,1.45-1.42,0-11.98,0-23.96,0-35.94,0-.91-.26-1.2-1.17-1.41-.68-.15-1-.53-.93-1.11.06-.57.5-.88,1.18-.85,1.18.04,2.29.86,2.72,2,.07.19.15.37.22.56v37.58ZM25.2,24.68c-.1,0-.16-.01-.21,0-2.53.58-4.19,2.72-4.19,5.51-.01,11.6,0,23.19,0,34.79,0,.16.03.33.06.58,1.11-1.06,2.28-1.81,3.69-2.06.56-.1.68-.34.68-.88-.02-12.42-.01-24.85-.01-37.27,0-.22,0-.44,0-.67Z"/>
  <path d="m35.94,48.14c0-5.8,0-11.59,0-17.39,0-.16,0-.32,0-.48-.02-.54.08-1.04.65-1.24.59-.21.99.1,1.34.55,1.43,1.88,2.87,3.76,4.3,5.63,7.69,10.05,15.38,20.11,23.06,30.16.13.18.28.35.39.54.35.63,0,1.36-.71,1.48-.2.03-.4.02-.6.02-8.97,0-17.93,0-26.9,0-1.25,0-1.52-.27-1.52-1.53,0-5.92,0-11.83,0-17.75Zm26.82,17.24c-8.29-10.84-16.5-21.57-24.78-32.41v32.41h24.78Z"/>
  <path d="m68.11,50.46c0-6.32,0-12.64.01-18.96,0-.43.09-.88.25-1.29.59-1.55,1.22-3.07,1.82-4.61.2-.5.46-.93,1.06-.93.6,0,.87.42,1.07.92.62,1.58,1.26,3.14,1.87,4.72.14.37.22.78.22,1.17.01,12.58,0,25.16,0,37.74,0,1.7-.77,2.47-2.48,2.47-.55,0-1.09.01-1.64,0-1.36-.04-2.17-.86-2.18-2.22,0-1.64,0-3.27,0-4.91,0-4.71,0-9.41,0-14.12Zm2.05-17.32v32.22h2.19v-32.22h-2.19Zm-.04,34.31c0,.67-.02,1.29.01,1.91,0,.12.19.32.3.33.63.03,1.27.02,1.91.02v-2.26h-2.23Zm1.13-39.07c-.39.98-.72,1.8-1.07,2.68h2.14c-.35-.88-.68-1.7-1.06-2.68Z"/>
  <path d="m56.21,37.38c-2.73,0-5.45,0-8.18,0-.28,0-.65.02-.81-.14-.26-.25-.54-.67-.5-.98.04-.31.44-.6.74-.82.15-.11.43-.05.65-.05,5.41,0,10.83,0,16.24,0,.12,0,.24,0,.36,0,.67.03,1.08.4,1.09.97.01.59-.41,1-1.11,1.01-2.83.01-5.66,0-8.48,0Z"/>
  <path d="m41.3,53.35c0-2.42,0-4.85,0-7.27,0-.55.1-1.02.67-1.22.61-.22.98.12,1.33.57,3.76,4.92,7.52,9.85,11.29,14.76.3.39.51.79.28,1.28-.24.52-.71.59-1.23.59-3.65,0-7.31,0-10.96,0-1.04,0-1.37-.34-1.37-1.38,0-2.44,0-4.89,0-7.33Zm10.6,6.65c-2.86-3.74-5.66-7.41-8.47-11.07-.03.03-.07.06-.1.09v10.98h8.57Z"/>
</svg>