<?xml version="1.0" encoding="UTF-8"?>
<svg id="Layer_2" data-name="Layer 2" xmlns="http://www.w3.org/2000/svg" viewBox="0 0 100 100" width="100" height="100">
  <path fill = "#ff6e00" d="m60.83,89.48c-8.61,0-16.28-6.16-18.26-14.66-.15-.64-.43-.87-1.06-.87-.68.01-1.3.02-1.92.02h-2.24c-.3,0-.54.24-.54.54v2.08l-.18-.25-10.08.02c-2.48,0-4.96,0-7.44-.01-2.55-.01-4.79-1.75-5.46-4.23-.68-2.53.41-5.15,2.64-6.35.75-.41,1.66-.58,2.53-.75l.29-.06c.19-.04.39-.05.65-.05.18,0,.37,0,.56.02h.28c.17.01.33-.06.43-.19.1-.13.14-.29.11-.45l-7.28-34.25c-.32-1.5.64-2.98,2.14-3.3l14.9-3.17c.25-.05.43-.27.43-.53v-4.13c0-1.54,1.25-2.78,2.78-2.78h32.05c1.54,0,2.78,1.25,2.78,2.78v4.11c0,.25.18.48.43.53l14.95,3.18c1.5.32,2.46,1.8,2.15,3.29l-2.49,11.71c-1.64,7.72-3.29,15.44-4.93,23.16-.08.37-.01.78.05,1.05,1.27,5.13.47,10.35-2.26,14.71-2.72,4.35-7.06,7.35-12.22,8.46-1.25.27-2.54.41-3.81.41Zm.07-35.78c-9.33,0-16.93,7.59-16.94,16.91,0,4.52,1.76,8.77,4.96,11.98,3.2,3.21,7.46,4.97,11.98,4.97,9.34-.02,16.94-7.62,16.93-16.95,0-9.33-7.61-16.91-16.94-16.91h0Zm-34.29,13.11c-3.04,0-5.38.01-7.57.05-.7.01-1.58.36-2.35.94-1.24.93-1.67,2.62-1.08,4.19.58,1.52,1.97,2.47,3.63,2.47,2.17,0,4.33,0,6.5,0h8.46c.07,0,.15,0,.22-.02.26-.02.48-.25.49-.51,0-.08,0-.16,0-.24v-6.75s-.3-.09-.3-.09c-.06-.02-.12-.04-.18-.04,0,0-6.41-.01-7.83-.01Zm10.79,2.43c-.3,0-.54.24-.54.54v1.72c0,.3.24.54.54.54h4.11c.3,0,.54-.24.54-.54v-1.72c0-.3-.24-.54-.54-.54h-4.11Zm-2.43-51.24c-.92,0-1.67.75-1.67,1.68v44.73c0,.3.24.54.54.54h2.99v1.82c0,.3.24.54.54.54h1.89c.85,0,1.68,0,2.51-.02.31,0,.64-.37.72-.62.18-.51.33-1.03.49-1.55.12-.41.24-.81.38-1.21.11-.33.24-.65.39-.99l.06-.14c.07-.17.05-.36-.05-.51-.1-.15-.27-.24-.45-.24h-7.14v-17.29h28.06v1.16c0,1.85,0,3.64,0,5.43,0,.2.07.75.38.85.53.17,1.05.29,1.6.42l.22.05h.1c.14,0,.28-.04.38-.15.11-.1.16-.24.16-.39V19.67c0-.92-.75-1.68-1.68-1.68h-30.45Zm-4.19,7.52h-.11s-13.49,2.88-13.49,2.88c-.44.09-.81.35-1.06.73-.24.38-.33.82-.23,1.26l7.25,34.08c.05.25.28.43.53.43h1.83c.16,0,.32-.07.42-.2.1-.13.14-.29.11-.45l-2.11-9.96,6.96-1.49c.25-.05.43-.27.43-.53v-1.82c0-.3-.24-.54-.54-.54h-.11s-7.3,1.55-7.3,1.55l-.03-.09c-1.39-4.65-.48-8.29,2.78-11.14.12-.11.19-.27.18-.43,0-.17-.09-.32-.22-.41-2.79-2.04-2.9-4.98-2.13-6.89.92-2.3,2.79-3.46,5.55-3.46.39,0,.81.02,1.24.07.34,0,.6-.23.6-.54v-2.5c0-.3-.24-.54-.54-.54v-.1s0,.1,0,.1Zm-.01,29.25h-.11s-3.97.86-3.97.86c-.14.03-.26.11-.34.24-.08.12-.11.27-.08.41l1.74,8.18c.05.25.28.43.53.43h2.23c.3,0,.54-.24.54-.54v-9.02c0-.3-.24-.54-.54-.54v-.1s0,.1,0,.1Zm38.78-29.26c-.29,0-.52.23-.54.51v.13s0,5.5,0,5.5c0,7.1,0,14.2-.01,21.3,0,.59.27.85.67,1.06,3.04,1.6,5.52,3.92,7.36,6.9.1.16.27.26.46.26.26,0,.48-.18.53-.43l6.69-31.48c.03-.14,0-.29-.08-.41-.08-.12-.2-.21-.34-.24l-14.64-3.11h-.1Zm-27.88,34.64c.92,0,1.84,0,2.76.02.61,0,.97-.19,1.35-.69,3.09-4.1,7.15-6.58,12.08-7.38.93-.15,1.86-.21,2.83-.28.4-.03.75-.05,1.11-.08.28-.02.5-.26.5-.54v-4.07c0-.3-.24-.54-.54-.54h-23.18c-.3,0-.54.24-.54.54v12.48c0,.3.24.54.54.54h3.08Zm-10.96-19.96c-1.93.26-3.71,1.4-4.88,3.13-1.13,1.66-1.52,3.62-1.08,5.37.06.24.27.4.52.4h.11s5.51-1.18,5.51-1.18c.25-.05.43-.28.43-.53v-6.65c0-.3-.25-.54-.54-.54h0s-.07,0-.07,0Zm-1.51-9.4c-.28,0-.58.04-.93.13-1.01.25-1.88.92-2.38,1.84-.52.94-.62,2.06-.27,3.08.52,1.53,2.01,2.6,3.61,2.6.47,0,.92-.09,1.35-.27.42-.17.84-.45.79-1.18-.04-.52-.03-1.05-.02-1.57,0-.61.02-1.18-.02-1.74.07-1.17.03-1.94-.41-2.4-.32-.34-.83-.49-1.71-.49v-.1s0,.1,0,.1Zm31.71,53.9c-7.75,0-14.06-6.3-14.06-14.04,0-3.75,1.46-7.28,4.11-9.94,2.65-2.66,6.18-4.13,9.93-4.13,7.75,0,14.07,6.3,14.08,14.04,0,3.75-1.46,7.28-4.11,9.94-2.66,2.66-6.18,4.13-9.93,4.14h-.01Zm.01-26.22c-6.69,0-12.16,5.42-12.18,12.08-.01,3.27,1.25,6.34,3.55,8.66,2.29,2.31,5.33,3.58,8.57,3.59,6.73,0,12.21-5.46,12.21-12.16,0-6.7-5.44-12.16-12.12-12.17l-.03-.1v.1Zm1.19,21.33c-.51,0-.92-.41-.92-.92,0-.48.32-.87.78-.94.08-.01.12-.02.17-.02.41,0,.76.26.88.65.08.28.05.56-.1.79-.15.23-.38.38-.65.42-.08.01-.13.02-.17.02Zm4.33-1.99c-.31,0-.6-.16-.78-.42-.26-.4-.21-.9.13-1.22,2.39-2.26,3.08-4.93,2.07-7.92-.93-2.75-2.92-4.41-5.9-4.92-.46-.08-.79-.47-.79-.92,0-.54.41-.96.92-.96h.11c2.64.31,6.09,2.32,7.42,6.02,1.28,3.55.22,7.71-2.56,10.11-.17.15-.4.23-.62.23Zm9.87-26.53c-.06,0-.13,0-.19-.02l-4.68-.99c-.24-.05-.44-.19-.58-.4-.14-.21-.18-.46-.13-.71.1-.45.47-.76.91-.76.07,0,.13,0,.2.02l4.67,1c.5.11.82.6.71,1.1-.09.45-.47.76-.91.76Zm1-4.66c-.07,0-.13,0-.19-.02l-4.68-1c-.5-.11-.82-.6-.72-1.1.09-.45.47-.76.91-.76.07,0,.13,0,.19.02l4.68.99c.5.11.82.6.72,1.1-.1.45-.47.77-.92.77Zm.99-4.67c-.06,0-.13,0-.19-.02l-4.68-1c-.24-.05-.45-.2-.59-.41-.14-.21-.18-.46-.13-.7.1-.44.47-.76.91-.76.06,0,.13,0,.19.02l4.68.99c.24.05.45.2.59.41.13.21.18.46.13.7-.1.45-.47.76-.91.76Zm-19.81-.22c-.47,0-.86-.38-.86-.86,0-.56.38-.94.86-.94h4.85c.47,0,.86.38.86.86,0,.56-.38.94-.86.94h-4.85Zm-21.11-.01c-.71,0-1.28-.57-1.29-1.28-.04-4.29,1.74-7.32,5.44-9.27l.3-.16-.24-.24c-1.46-1.47-2.07-3.07-1.86-4.91.17-1.5.85-2.76,2.02-3.73,1.03-.85,2.33-1.33,3.65-1.33,1.56,0,3.02.62,4.11,1.75,1.9,1.97,2.41,5.42-.29,8.21l-.23.24.29.15c3.7,1.93,5.47,4.96,5.42,9.27,0,.71-.59,1.28-1.29,1.28h-16.05Zm8.03-9.48c-3.67,0-6.88,2.81-7.33,6.39-.04.31.06.62.26.85.2.23.49.36.8.36h12.52c.3,0,.59-.13.79-.36.2-.23.3-.54.26-.84-.42-3.57-3.61-6.38-7.27-6.4l-.04-.1v.1Zm0-9.54c-2.09,0-3.81,1.7-3.83,3.78,0,1.02.39,1.99,1.12,2.72.72.73,1.69,1.13,2.71,1.13,2.09,0,3.8-1.7,3.82-3.78.02-2.09-1.66-3.82-3.75-3.86l-.07-.1v.1Zm33.87,14.58c-.06,0-.13,0-.2-.02l-4.65-.99c-.51-.11-.83-.61-.73-1.11.09-.44.48-.75.92-.75.07,0,.13,0,.2.02l4.65.99c.51.11.83.61.73,1.12-.09.43-.48.75-.92.75Zm-20.82-.33c-.47,0-.86-.38-.86-.86,0-.55.38-.94.86-.94h4.88c.47,0,.86.38.86.86,0,.55-.38.94-.86.94h-4.88Zm21.83-4.33c-.07,0-.13,0-.2-.02l-4.68-1c-.5-.11-.82-.6-.72-1.1.09-.45.47-.76.91-.76.06,0,.13,0,.19.02l4.68.99c.5.11.82.6.72,1.1-.09.45-.47.77-.92.77Zm-21.8-.42c-.47,0-.86-.38-.86-.86,0-.56.38-.94.86-.94h4.85c.47,0,.86.38.86.86,0,.56-.38.94-.86.94h-4.85Zm0-4.79c-.47,0-.86-.38-.86-.86,0-.53.37-.93.86-.93h4.88c.47,0,.86.38.86.86,0,.53-.37.93-.86.93h-4.88Zm0-4.75c-.47,0-.86-.38-.86-.86,0-.56.38-.94.86-.94h4.85c.47,0,.86.38.86.86,0,.56-.38.94-.86.94h-4.85Z"/>
</svg>