<?xml version="1.0" encoding="UTF-8"?>
<svg id="Layer_2" data-name="Layer 2" xmlns="http://www.w3.org/2000/svg" viewBox="0 0 298.16 298.16" width="200" height="200">
  <defs>
    <style>
      .cls-1 {
        fill: none;
      }

      .cls-2 {
        opacity: .1;
      }

      .cls-3 {
        fill: #282662;
      }
    </style>
  </defs>
  <g id="Layer_1-2" data-name="Layer 1">
    <g>
      <rect class="cls-1" width="298.16" height="298.16"/>
      <g class="cls-2">
        <g>
          <path class="cls-3" d="M181.24,236.51h-2.89c-34.7,0-69.39,0-104.09,0-5.36,0-6.74-1.71-5.64-6.95,6.25-29.64,30.33-52.23,60.36-56.11,20.76-2.68,39.36,2.82,55.54,16.2,.35,.29,.7,.6,1.03,.91,.1,.1,.14,.27,.25,.5-9.14,14.21-10.72,29.31-4.58,45.45Z"/>
          <path class="cls-3" d="M265.25,217.84c.1,22.11-17.87,40.21-40,40.27-22.14,.06-40.25-17.88-40.34-39.97-.1-22.17,17.75-40.2,39.92-40.34,22.31-.14,40.32,17.69,40.42,40.04Zm-45.79,3.33c-2.63-2.65-5.38-5.42-8.13-8.2-1.54-1.55-3.32-2.49-5.56-2.12-2.3,.38-3.94,1.7-4.72,3.9-.85,2.4-.22,4.56,1.54,6.34,4.04,4.09,8.11,8.16,12.19,12.21,3.5,3.47,6.66,3.46,10.12-.02,7.4-7.46,14.78-14.93,22.17-22.4,.38-.38,.76-.76,1.09-1.18,1.92-2.48,1.73-5.82-.43-7.96-2.18-2.15-5.49-2.31-7.93-.3-1,.83-1.87,1.81-2.81,2.72-5.77,5.6-11.54,11.2-17.53,17.02Z"/>
          <path class="cls-3" d="M102.39,131.95c.03-19.83,16.25-36.01,36.11-36.02,19.92,0,36.22,16.35,36.14,36.25-.08,19.94-16.4,36.11-36.37,36.02-19.81-.08-35.9-16.34-35.87-36.25Z"/>
          <path class="cls-3" d="M95.18,111.42c-.18,.32-.36,1.05-.69,1.12-.58,.12-1.37,.03-1.86-.29-4.26-2.73-8.53-5.45-12.69-8.33-1.62-1.12-2.82-1.2-4.49-.04-4.08,2.86-8.3,5.52-12.51,8.18-.61,.38-1.5,.32-2.26,.46-.08-.78-.39-1.61-.2-2.32,1.26-4.9,2.57-9.78,3.97-14.64,.46-1.61,.2-2.68-1.2-3.75-3.96-3.03-7.83-6.18-11.66-9.37-.62-.51-.9-1.43-1.34-2.17,.78-.33,1.55-.9,2.35-.95,4.9-.32,9.8-.59,14.71-.72,1.87-.05,2.84-.71,3.48-2.54,1.63-4.7,3.47-9.33,5.31-13.96,.27-.68,1.01-1.17,1.54-1.75,.54,.57,1.3,1.04,1.57,1.71,1.89,4.77,3.74,9.56,5.47,14.39,.52,1.45,1.28,2.04,2.82,2.09,4.98,.17,9.96,.43,14.94,.76,.89,.06,1.75,.6,2.63,.91-.48,.78-.8,1.76-1.47,2.32-3.77,3.14-7.58,6.25-11.48,9.22-1.47,1.12-1.75,2.19-1.24,3.91,1.37,4.63,2.57,9.31,3.83,13.96,.14,.52,.28,1.03,.48,1.77Z"/>
          <path class="cls-3" d="M186.53,93.7c-.37-.44-.8-1.14-1.4-1.63-3.98-3.25-8.02-6.43-11.98-9.71-.57-.47-.84-1.32-1.25-2,.76-.36,1.51-.97,2.29-1.02,5.05-.33,10.11-.59,15.17-.76,1.61-.06,2.43-.65,2.99-2.21,1.69-4.76,3.54-9.47,5.4-14.17,.28-.69,.98-1.22,1.48-1.82,.58,.61,1.41,1.12,1.7,1.84,1.79,4.48,3.58,8.97,5.11,13.54,.7,2.09,1.82,2.85,3.97,2.89,4.75,.1,9.51,.36,14.25,.68,.86,.06,1.69,.68,2.53,1.04-.47,.72-.81,1.61-1.44,2.14-3.72,3.09-7.43,6.2-11.31,9.07-1.74,1.29-1.98,2.52-1.39,4.47,1.4,4.62,2.63,9.29,3.83,13.96,.2,.78-.13,1.69-.22,2.55-.83-.2-1.77-.21-2.46-.64-4.27-2.71-8.51-5.48-12.7-8.32-1.27-.86-2.23-.87-3.51,0-3.99,2.72-8.04,5.35-12.13,7.93-.88,.55-2.01,.71-3.03,1.04-.03-1.06-.29-2.19-.04-3.18,1.16-4.61,2.46-9.17,3.71-13.76,.14-.52,.24-1.05,.45-1.93Z"/>
          <path class="cls-3" d="M121.8,89.84c-.23-1.13-.7-2.05-.52-2.8,1.08-4.39,2.36-8.73,3.49-13.1,1.2-4.65,1.64-3.57-2.13-6.63-3.45-2.81-6.96-5.54-10.38-8.39-.56-.47-.79-1.34-1.17-2.03,.71-.34,1.4-.92,2.13-.97,4.67-.28,9.35-.59,14.03-.6,2.51,0,3.86-.8,4.67-3.28,1.48-4.51,3.28-8.91,5.04-13.33,.27-.69,1-1.19,1.52-1.79,.54,.57,1.31,1.05,1.58,1.72,1.89,4.77,3.74,9.56,5.46,14.4,.56,1.58,1.45,2.13,3.03,2.18,4.91,.16,9.82,.37,14.72,.66,.9,.05,1.77,.6,2.65,.92-.53,.84-.9,1.87-1.62,2.48-3.83,3.19-7.72,6.32-11.65,9.38-1.14,.89-1.42,1.72-1.01,3.14,1.41,4.85,2.72,9.74,3.96,14.65,.21,.84-.13,1.83-.22,2.74-.83-.23-1.76-.29-2.46-.73-3.89-2.46-7.84-4.85-11.52-7.59-2.19-1.63-3.75-1.44-5.85,.08-3.73,2.69-7.66,5.09-11.52,7.6-.51,.33-1.05,.61-2.2,1.28Z"/>
        </g>
      </g>
    </g>
  </g>
</svg>