<?xml version="1.0" encoding="UTF-8"?>
<svg id="Layer_2" data-name="Layer 2" xmlns="http://www.w3.org/2000/svg" viewBox="0 0 298.16 298.16" width="200" height="200">
  <defs>
    <style>
      .cls-1 {
        fill: none;
      }

      .cls-2 {
        opacity: .1;
      }

      .cls-3 {
        fill: #282662;
      }
    </style>
  </defs>
  <g id="Layer_1-2" data-name="Layer 1">
    <g>
      <rect class="cls-1" width="298.16" height="298.16"/>
      <g class="cls-2">
        <path class="cls-3" d="M44.38,160.93c0-.95,0-1.91,0-2.86,.73-1.3,1.4-2.62,2.19-3.88,3.4-5.42,6.89-10.8,10.22-16.26,.48-.78,.64-2.08,.36-2.96-2.01-6.36-4.18-12.66-6.28-18.99-1.54-4.66-.54-7.34,3.66-9.77,5.72-3.31,11.43-6.63,17.18-9.87,1.17-.66,1.79-1.41,2-2.77,.94-6.26,2.03-12.5,2.97-18.76,.88-5.82,2.81-7.63,8.69-7.87,6.27-.25,12.53-.51,18.8-.69,1.56-.04,2.59-.54,3.53-1.85,3.84-5.3,7.8-10.5,11.73-15.73,2.84-3.77,5.67-4.47,9.97-2.43,6.03,2.85,12.02,5.78,18.09,8.54,.89,.41,2.29,.42,3.18,.01,6.19-2.82,12.31-5.81,18.46-8.72,3.88-1.83,6.86-1.07,9.47,2.4,4.1,5.44,8.15,10.93,12.31,16.32,.53,.69,1.6,1.29,2.46,1.34,6.6,.36,13.21,.55,19.81,.83,5.43,.23,7.49,2.19,8.31,7.59,.96,6.33,2.03,12.64,3,18.96,.2,1.31,.75,2.13,1.94,2.8,5.76,3.23,11.47,6.55,17.19,9.86,4.23,2.45,5.25,5.1,3.72,9.73-2.07,6.27-4.12,12.54-6.3,18.77-.49,1.4-.29,2.39,.48,3.58,3.52,5.43,6.95,10.91,10.42,16.38,2.82,4.46,2.49,7.14-1.35,10.82-4.77,4.58-9.57,9.13-14.29,13.75-.55,.54-1.03,1.5-.98,2.22,.47,6.8,1.02,13.59,1.62,20.37,.42,4.73-1.28,7.31-5.87,8.64-6.4,1.86-12.8,3.75-19.22,5.53-1.26,.35-1.94,.95-2.43,2.13-2.58,6.22-5.23,12.42-7.89,18.61-1.8,4.19-4.52,5.59-8.97,4.68-6.67-1.37-13.33-2.77-20.01-4.06-.79-.15-1.9,.11-2.52,.6-5.17,4.12-10.26,8.33-15.37,12.53-4.19,3.44-6.9,3.45-11.08,.02-5.11-4.2-10.2-8.41-15.37-12.53-.62-.5-1.73-.78-2.51-.63-6.62,1.27-13.21,2.64-19.81,4.01-4.74,.99-7.35-.33-9.26-4.77-2.63-6.13-5.24-12.26-7.81-18.42-.48-1.16-1.12-1.81-2.4-2.16-6.49-1.78-12.96-3.69-19.42-5.57-4.28-1.25-6.09-3.82-5.74-8.15,.54-6.79,1.15-13.58,1.6-20.38,.06-.91-.41-2.13-1.06-2.77-4.35-4.32-8.88-8.47-13.21-12.81-1.59-1.6-2.8-3.57-4.19-5.38Zm96.22,4.51c-.68-.83-1.11-1.45-1.63-1.98-6.45-6.56-12.9-13.11-19.36-19.66-3.63-3.68-6.67-3.65-10.33,.07-2.15,2.19-4.29,4.38-6.43,6.57-3.58,3.66-3.58,6.74,.02,10.41,10.65,10.84,21.3,21.67,31.96,32.49,.57,.58,1.17,1.15,1.79,1.67,5.12,4.25,10.48,3.65,14.17-1.85,15.33-22.84,30.58-45.73,45.83-68.62,2.23-3.35,1.49-6.68-1.86-9.04-2.67-1.88-5.38-3.72-8.07-5.57-4.38-3.01-7.33-2.45-10.28,1.97-11.3,16.93-22.6,33.86-33.91,50.79-.53,.79-1.08,1.55-1.9,2.74Z"/>
      </g>
    </g>
  </g>
</svg>