<?xml version="1.0" encoding="UTF-8"?>
<svg id="Layer_2" data-name="Layer 2" xmlns="http://www.w3.org/2000/svg" viewBox="0 0 298.16 298.16" width="200" height="200">
  <defs>
    <style>
      .cls-1 {
        fill: none;
      }

      .cls-2 {
        opacity: .1;
      }

      .cls-3 {
        fill: #282662;
      }
    </style>
  </defs>
  <g id="Layer_1-2" data-name="Layer 1">
    <g>
      <rect class="cls-1" x="0" width="298.16" height="298.16"/>
      <g class="cls-2">
        <path class="cls-3" d="M154.52,43.82c3.22,.53,6.46,.94,9.65,1.6,31.07,6.47,54.35,30.6,59.32,62.11,3.44,21.77-1.75,41.58-15.46,58.94-5.13,6.5-10.16,12.98-12.53,21.07-.7,2.4-1.27,4.84-1.94,7.42h-19.35v-2.41c0-17.25,.03-34.5-.05-51.74,0-1.75-.34-3.67-1.09-5.23-5.99-12.44-12.1-24.82-18.21-37.2-1.15-2.33-3.11-3.5-5.73-3.51-2.71-.02-4.71,1.16-5.9,3.58-6.04,12.26-12.11,24.5-18.03,36.82-.84,1.74-1.22,3.87-1.23,5.83-.09,17.18-.05,34.36-.05,51.53v2.47c-6.3,0-12.43,.02-18.55-.05-.38,0-1.02-.68-1.09-1.12-1.65-10.04-6.61-18.3-13.04-26.02-14.1-16.92-19.95-36.54-16.81-58.33,4.21-29.14,20.47-49.29,47.49-60.76,6.26-2.66,12.91-3.97,19.69-4.61,.68-.06,1.34-.25,2.01-.38,3.63,0,7.27,0,10.9,0Z"/>
        <path class="cls-3" d="M256.37,127.64c-1.68,3.61-4.53,4.9-8.43,4.65-3.33-.21-6.69-.01-10.04-.05-3.89-.05-6.67-2.7-6.67-6.29,0-3.59,2.77-6.22,6.67-6.27,3.35-.04,6.7,.17,10.04-.05,3.91-.26,6.76,1.03,8.42,4.66v3.35Z"/>
        <path class="cls-3" d="M105.07,207.76h87.87c.71,8.27-.29,15.82-7.46,21.23-3.47,2.63-7.43,3.8-11.72,3.81-16.48,.04-32.96,.09-49.43-.01-11.07-.07-19.06-8.17-19.26-19.23-.03-1.87,0-3.75,0-5.81Z"/>
        <path class="cls-3" d="M161.53,195h-24.92v-46.51c8.32,2.66,16.56,2.69,24.92,0v46.52Z"/>
        <path class="cls-3" d="M179.08,245.49c-2,7.02-9.03,12.6-16.72,12.81-8.86,.23-17.73,.23-26.59,0-7.7-.21-14.78-5.84-16.69-12.8h60.01Z"/>
        <path class="cls-3" d="M51.17,77.46c.85,.47,2.55,1.04,3.77,2.15,2.95,2.66,5.71,5.54,8.47,8.4,2.73,2.83,2.75,6.66,.17,9.16-2.52,2.44-6.26,2.38-9.01-.28-2.96-2.86-5.88-5.76-8.72-8.74-1.91-2-2.33-4.42-1.18-6.97,1.08-2.4,3.07-3.52,6.5-3.72Z"/>
        <path class="cls-3" d="M239.53,98.97c-3.12-.15-5.06-1.24-6.17-3.51-1.11-2.25-1.08-4.64,.61-6.48,3.26-3.54,6.65-6.97,10.21-10.2,2.25-2.04,5.86-1.59,8.02,.52,2.16,2.11,2.73,5.74,.71,8-3.3,3.68-6.89,7.11-10.5,10.49-.84,.78-2.26,.93-2.88,1.17Z"/>
        <path class="cls-3" d="M65.53,159.98c-.37,.77-.76,2.36-1.73,3.42-2.97,3.23-6.09,6.34-9.31,9.34-2.49,2.32-6.19,2.15-8.53-.12-2.41-2.34-2.64-6.11-.25-8.68,2.99-3.22,6.13-6.31,9.32-9.33,1.95-1.85,4.35-2.14,6.81-1.03,2.4,1.09,3.49,3.09,3.69,6.41Z"/>
        <path class="cls-3" d="M239.67,152.91c.75,.35,2.3,.69,3.3,1.62,3.28,3.02,6.46,6.18,9.5,9.44,2.33,2.5,2.12,6.19-.17,8.53-2.35,2.39-6.13,2.58-8.69,.19-3.16-2.95-6.21-6.03-9.19-9.16-1.91-2-2.28-4.44-1.11-6.98,1.1-2.39,3.11-3.48,6.37-3.65Z"/>
        <path class="cls-3" d="M54.23,132.24c-2.03,0-4.05,.05-6.08-.01-3.71-.11-6.43-2.88-6.36-6.4,.07-3.44,2.76-6.08,6.39-6.14,4.12-.06,8.24-.07,12.36,0,3.63,.06,6.31,2.73,6.36,6.17,.05,3.51-2.67,6.26-6.39,6.36-2.09,.06-4.19,.01-6.29,.01Z"/>
        <path class="cls-3" d="M159.44,135.6c-7.04,2.75-13.71,2.76-20.73,0,3.42-6.85,6.78-13.57,10.36-20.72,3.57,7.13,6.91,13.81,10.37,20.72Z"/>
      </g>
    </g>
  </g>
</svg>