<?xml version="1.0" encoding="UTF-8"?>
<svg id="Layer_2" data-name="Layer 2" xmlns="http://www.w3.org/2000/svg" viewBox="0 0 100 100" width="100" height="100">
  <path fill = "#ff6e00" d="M17.25,53.15c.33-.72,.9-1.2,1.54-1.64,2.3-1.59,4.57-3.21,6.86-4.81,.29-.2,.62-.37,.95-.5,5.1-1.98,10.2-3.96,15.31-5.91,.41-.16,.62-.37,.67-.8,.08-.63,.17-1.27,.31-1.89,.11-.5-.03-.87-.38-1.21-.74-.71-1.46-1.43-2.2-2.14-.89-.86-1.24-1.89-.84-3.08,.4-1.19,1.27-1.81,2.51-1.96,.97-.12,1.94-.31,2.91-.42,.6-.07,.95-.37,1.19-.91,.4-.89,.86-1.76,1.29-2.64,.54-1.09,1.41-1.72,2.63-1.72,1.22,0,2.1,.6,2.64,1.7,.45,.92,.91,1.83,1.35,2.75,.22,.46,.53,.73,1.06,.8,1.06,.13,2.11,.3,3.16,.46,1.15,.18,1.96,.81,2.34,1.92,.38,1.11,.13,2.11-.68,2.95-.74,.76-1.51,1.5-2.29,2.23-.39,.37-.59,.77-.43,1.31,.06,.2,.11,.42,.1,.63-.08,1.49,.75,2.17,2.1,2.5,.8,.2,1.56,.57,2.33,.88,.64,.26,.91,.77,.69,1.3-.21,.53-.74,.73-1.39,.49-1.11-.42-2.22-.85-3.35-1.28-.47,1.07-1.2,1.85-2.37,1.93-.61,.04-1.27-.11-1.84-.34-.8-.32-1.55-.78-2.39-1.23v12.39c6.59-2.54,13.11-5.06,19.8-7.64-.62-.24-1.07-.43-1.53-.61-1.25-.48-2.5-.96-3.75-1.44-.7-.27-.99-.75-.79-1.31,.19-.55,.75-.75,1.44-.49,2.47,.94,4.93,1.89,7.39,2.85,.27,.11,.54,.26,.78,.43,2.41,1.69,4.8,3.39,7.22,5.07,.78,.54,1.28,1.21,1.17,2.18-.11,1-.76,1.55-1.67,1.9-2.03,.76-4.05,1.56-6.08,2.32-.4,.15-.56,.33-.55,.78,.04,1.21,.02,2.43,.01,3.65,0,.7-.37,1.12-.95,1.12-.57,0-.96-.43-.96-1.12-.01-1.13,0-2.25,0-3.46-1.36,.52-2.64,1.02-3.93,1.51-2.34,.9-4.69,1.79-7.03,2.72-1.43,.57-2.73,.4-3.98-.5-1.99-1.44-4-2.83-6.01-4.24-.17-.12-.34-.22-.59-.38v24.12c.28-.11,.51-.19,.74-.28,6.45-2.49,12.91-4.98,19.36-7.47,1.07-.41,1.42-.93,1.42-2.08,0-1.66,0-3.33,0-4.99,0-.82,.33-1.25,.94-1.26,.64-.01,.97,.42,.97,1.28,0,1.64,0,3.28,0,4.93,0,2-.81,3.2-2.67,3.92-6.65,2.57-13.3,5.13-19.95,7.7-.49,.19-.96,.42-1.44,.63h-.77c-.24-.12-.47-.27-.72-.36-6.91-2.67-13.81-5.33-20.72-8-1.79-.69-2.62-1.9-2.62-3.81,0-4.52,0-9.04,.01-13.56,0-.48-.13-.71-.59-.88-1.95-.73-3.88-1.52-5.84-2.23-.9-.33-1.57-.82-1.89-1.74v-1.02Zm31.75,5.07c-.28,.19-.45,.3-.62,.42-2.02,1.42-4.05,2.83-6.06,4.27-1.22,.87-2.48,.99-3.86,.45-3.43-1.34-6.86-2.66-10.3-3.99-.2-.08-.41-.15-.68-.25,0,.31,0,.53,0,.74,0,4.18,0,8.35,0,12.53,0,1.35,.28,1.77,1.53,2.25,5.5,2.13,10.99,4.25,16.49,6.37,1.14,.44,2.29,.88,3.5,1.34v-24.14Zm-29.96-4.46c.32,.14,.5,.23,.7,.31,6.47,2.5,12.94,5,19.41,7.51,.77,.3,1.42,.23,2.1-.25,2.06-1.48,4.14-2.93,6.21-4.39,.15-.11,.29-.23,.47-.37-.14-.06-.22-.1-.29-.13-6.85-2.65-13.69-5.29-20.55-7.92-.24-.09-.63-.02-.85,.13-2.23,1.53-4.44,3.1-6.65,4.66-.15,.11-.29,.23-.55,.45Zm61.91-.01c-.29-.23-.47-.39-.67-.53-2.11-1.49-4.23-2.95-6.31-4.47-.46-.33-.82-.35-1.33-.15-4.82,1.88-9.64,3.73-14.46,5.6-2.01,.78-4.03,1.56-6.12,2.37,.24,.18,.4,.31,.57,.43,2.04,1.44,4.08,2.86,6.11,4.32,.7,.5,1.37,.56,2.15,.26,6.45-2.5,12.9-4.99,19.35-7.49,.21-.08,.41-.19,.72-.34Zm-36.73-12.62c0,.92,.69,1.32,1.47,.94,.95-.48,1.89-.98,2.83-1.48,.98-.52,1.95-.53,2.93,0,.88,.47,1.77,.93,2.65,1.4,.41,.22,.82,.37,1.26,.08,.47-.32,.44-.79,.36-1.26-.17-1.01-.34-2.02-.52-3.02-.19-1.05,.13-1.93,.88-2.67,.78-.76,1.58-1.49,2.31-2.3,.22-.24,.37-.73,.27-1.01-.09-.28-.5-.58-.82-.64-1.04-.22-2.1-.36-3.15-.5-1.11-.14-1.89-.72-2.38-1.7-.46-.93-.93-1.87-1.38-2.81-.2-.42-.51-.78-.96-.68-.34,.08-.72,.38-.89,.68-.53,.92-.96,1.9-1.43,2.85-.47,.94-1.23,1.5-2.28,1.65-1.05,.15-2.11,.27-3.15,.49-.34,.07-.72,.35-.91,.65-.26,.41,.02,.8,.35,1.12,.77,.74,1.53,1.48,2.29,2.24,.73,.73,1.03,1.59,.85,2.62-.2,1.15-.39,2.31-.56,3.37Zm-15.04,6.13c6.69,2.58,13.22,5.1,19.82,7.65v-12.4c-.85,.44-1.63,.85-2.42,1.26-.82,.43-1.66,.51-2.53,.15-.82-.33-1.32-.97-1.67-1.78-4.36,1.69-8.7,3.36-13.2,5.1Z"/>
  <path fill = "#ff6e00" d="M62.66,32.19c.09-.54,.2-1.3,.36-2.05,.11-.54,.06-.98-.41-1.36-.49-.4-.93-.88-1.38-1.33-.68-.67-.92-1.48-.64-2.4,.28-.92,.91-1.47,1.86-1.63,.73-.12,1.48-.19,2.21-.35,.28-.07,.61-.29,.76-.54,.37-.62,.65-1.29,.98-1.94,.45-.87,1.16-1.36,2.15-1.35,.96,.01,1.66,.47,2.09,1.33,.32,.63,.64,1.25,.93,1.89,.18,.39,.41,.59,.86,.63,.76,.07,1.52,.19,2.27,.35,1.8,.39,2.48,2.47,1.26,3.84-.51,.57-1.07,1.1-1.64,1.61-.32,.29-.42,.58-.33,1.01,.16,.73,.27,1.47,.37,2.2,.13,.9-.2,1.64-.92,2.18-.73,.54-1.54,.62-2.36,.25-.68-.31-1.34-.66-1.98-1.03-.39-.22-.72-.25-1.12-.01-.66,.39-1.34,.75-2.04,1.06-1.57,.69-3.28-.46-3.27-2.38Zm1.93,.04c-.04,.56,.23,.75,.75,.5,.61-.3,1.22-.61,1.81-.95,.92-.53,1.81-.53,2.73,0,.59,.33,1.2,.65,1.81,.95,.55,.26,.82,.06,.73-.54-.1-.7-.21-1.39-.35-2.08-.19-.96,.06-1.76,.77-2.43,.5-.47,.99-.94,1.45-1.44,.15-.16,.33-.47,.26-.63-.07-.17-.38-.29-.61-.33-.63-.12-1.26-.2-1.9-.28-.98-.12-1.71-.59-2.13-1.51-.29-.64-.6-1.27-.94-1.88-.1-.18-.31-.38-.5-.4-.13-.02-.34,.22-.43,.38-.32,.58-.62,1.17-.88,1.77-.45,1.02-1.21,1.55-2.31,1.65-.66,.06-1.31,.16-1.96,.28-.55,.1-.66,.45-.28,.85,.44,.46,.89,.92,1.38,1.33,.93,.79,1.18,1.77,.91,2.93-.14,.6-.22,1.22-.32,1.82Z"/>
  <path fill = "#ff6e00" d="M39.52,25.74c.01,.68-.26,1.24-.73,1.71-.51,.51-1.06,.99-1.54,1.53-.18,.21-.3,.56-.28,.83,.06,.68,.21,1.34,.33,2.02,.18,1.01-.06,1.88-.91,2.49-.82,.6-1.7,.59-2.59,.12-.6-.32-1.19-.68-1.82-.93-.29-.12-.7-.11-.99,.01-.67,.27-1.29,.66-1.93,.98-.86,.42-1.7,.38-2.47-.19-.77-.57-1.07-1.35-.92-2.3,.12-.71,.28-1.42,.34-2.14,.02-.29-.09-.67-.28-.89-.47-.55-1.02-1.02-1.54-1.53-.68-.67-.92-1.48-.64-2.4,.28-.91,.92-1.47,1.87-1.62,.76-.12,1.52-.2,2.27-.36,.25-.05,.54-.26,.67-.48,.37-.64,.67-1.33,1.01-1.99,.44-.88,1.17-1.35,2.15-1.34,.96,0,1.66,.49,2.09,1.34,.32,.63,.64,1.25,.93,1.89,.18,.39,.42,.58,.87,.62,.76,.07,1.52,.2,2.27,.35,1.13,.23,1.85,1.15,1.85,2.28Zm-11.46,3.48c-.19,1.15-.35,2.05-.48,2.95-.09,.6,.19,.81,.73,.55,.65-.32,1.29-.65,1.93-1,.84-.46,1.66-.45,2.5,0,.6,.32,1.2,.66,1.81,.94,.21,.1,.55,.17,.69,.06,.14-.11,.16-.46,.13-.68-.09-.68-.22-1.34-.34-2.01-.17-.96,.11-1.76,.84-2.42,.5-.46,.99-.93,1.46-1.43,.14-.15,.25-.42,.21-.6-.03-.13-.31-.27-.5-.3-.67-.12-1.35-.21-2.02-.29-.99-.12-1.7-.61-2.13-1.52-.3-.64-.6-1.27-.94-1.89-.09-.17-.31-.4-.43-.38-.18,.02-.4,.22-.5,.4-.34,.61-.65,1.25-.94,1.88-.41,.89-1.11,1.37-2.07,1.5-.65,.09-1.31,.16-1.96,.29-.23,.04-.54,.16-.61,.33-.06,.15,.11,.46,.26,.63,.51,.54,1.11,1.01,1.57,1.59,.37,.46,.59,1.04,.79,1.41Z"/>
</svg>